<?xml version="1.0" encoding="utf-8"?>
<!-- Generator: Adobe Illustrator 19.0.0, SVG Export Plug-In . SVG Version: 6.00 Build 0)  -->
<!DOCTYPE svg PUBLIC "-//W3C//DTD SVG 1.0//EN" "http://www.w3.org/TR/2001/REC-SVG-20010904/DTD/svg10.dtd">
<svg version="1.0" id="Layer_1" xmlns="http://www.w3.org/2000/svg" xmlns:xlink="http://www.w3.org/1999/xlink" x="0px" y="0px"
	 viewBox="0 0 72 72" enable-background="new 0 0 72 72" xml:space="preserve">
<g id="XMLID_400_">
	<path id="XMLID_409_" fill="#FF6D42" d="M56.2,31.7L56.2,31.7c-0.2-3.9-1.6-7.7-4.2-11c-6.7-8.6-19.2-10.2-27.9-3.4
		c-12,9.3-10.2,33.2-9.9,36.6c0.9,0,2,0,3-0.1l1.9-0.3c1.1-0.3,2-0.7,2.6-1.5l0.1-0.2l0.2,0.1c0.4,0.1,0.7,0.1,1-0.2
		c0.9-0.6,1.4-2.3,1.5-2.8l0-0.3l0.3,0c0.5,0,1-0.1,1.4-0.5c0.5-0.5,0.7-1.5,0.6-3l0-0.4l0.4,0.1c0.3,0.1,0.6,0,0.9-0.3
		c1-0.9,1.1-4,1.1-5.1c0-0.2,0.1-0.3,0.3-0.3c0.2,0,0.3,0.1,0.3,0.3c0,0.2,0.2,4.3-1.3,5.6c-0.3,0.3-0.6,0.4-1,0.4
		c0,1.5-0.2,2.5-0.8,3.1c-0.5,0.5-1.1,0.7-1.6,0.7c-0.1,0.8-0.7,2.4-1.7,3.1c-0.4,0.3-0.9,0.4-1.4,0.3c-0.2,0.2-0.5,0.5-0.7,0.7
		c0.7,0.2,2.6,0.9,5.4,1.2l1.7,4.7l1.9-4.4c1.1,0,2.3,0,3.6-0.1l3.3,3.3l0.3-3.9c1.9-0.4,3.8-1.1,5.7-2c2.8,0.9,5.1-3,5.1-3
		c2.9,0.9,4.2-4.1,4.2-4.1C54.9,45.3,55,40,55,40C57.5,40,56.2,31.7,56.2,31.7z"/>
	<path id="XMLID_408_" fill="#FFFFFF" d="M38.5,37.4c-7.6,0-12.1-5.7-12.1-9.9c0-4.2,2.9-7.4,7.7-7.4c4.8,0,6.9,4.2,6.9,4.2
		s1.5-4.8,7.6-4.8c4.7,0,7,5.1,7,7.9C55.6,30.1,53.6,37.4,38.5,37.4z"/>
	<polygon id="XMLID_407_" fill="#4C4C4C" points="40.2,30 41.5,28.3 42.9,29.6 42,34.9 	"/>
	<path id="XMLID_404_" fill="#4C4C4C" d="M48.4,21.9c-2.4,0-4.3,1.9-4.3,4.3c0,2.4,1.9,4.3,4.3,4.3c2.4,0,4.3-1.9,4.3-4.3
		C52.7,23.8,50.8,21.9,48.4,21.9z M47.1,26.4c-0.6,0-1.1-0.5-1.1-1.1c0-0.6,0.5-1.1,1.1-1.1c0.6,0,1.1,0.5,1.1,1.1
		C48.3,25.9,47.7,26.4,47.1,26.4z"/>
	<path id="XMLID_401_" fill="#4C4C4C" d="M34,22.5c-2.4,0-4.3,1.9-4.3,4.3c0,2.4,1.9,4.3,4.3,4.3c2.3,0,4.3-1.9,4.3-4.3
		C38.3,24.4,36.4,22.5,34,22.5z M32.9,27.1c-0.6,0-1.1-0.5-1.1-1.1c0-0.6,0.5-1.1,1.1-1.1c0.6,0,1.1,0.5,1.1,1.1
		C34,26.5,33.5,27.1,32.9,27.1z"/>
</g>
</svg>
