<?xml version="1.0" encoding="utf-8"?>
<!-- Generator: Adobe Illustrator 19.0.0, SVG Export Plug-In . SVG Version: 6.00 Build 0)  -->
<!DOCTYPE svg PUBLIC "-//W3C//DTD SVG 1.0//EN" "http://www.w3.org/TR/2001/REC-SVG-20010904/DTD/svg10.dtd">
<svg version="1.0" id="Layer_1" xmlns="http://www.w3.org/2000/svg" xmlns:xlink="http://www.w3.org/1999/xlink" x="0px" y="0px"
	 viewBox="0 0 72 72" enable-background="new 0 0 72 72" xml:space="preserve">
<path id="XMLID_262_" fill="#FFFFFF" d="M32.9,24.7c-0.6,0-1.1,0.5-1.1,1.1c0,0.6,0.5,1.1,1.1,1.1c0.6,0,1.1-0.5,1.1-1.1
	C34,25.2,33.5,24.7,32.9,24.7z M47.1,24.1c-0.6,0-1.1,0.5-1.1,1.1c0,0.6,0.5,1.1,1.1,1.1c0.6,0,1.1-0.5,1.1-1.1
	C48.3,24.6,47.8,24.1,47.1,24.1z M56.3,31.7L56.3,31.7c-0.1-0.9-0.2-1.9-0.4-2.8c-0.6,3-3.6,8.9-17.3,8.9c-8,0-12.5-6.1-12.5-10.3
	c0-4.6,3.2-7.7,8.1-7.7c3.9,0,6.1,2.6,6.9,3.8c0.7-1.4,2.8-4.4,7.7-4.4c0.9,0,1.8,0.2,2.5,0.5c-6.9-7.7-18.7-8.9-27-2.5
	c-12,9.3-10.2,33.3-9.9,36.6c0.9,0,2,0,3-0.1l1.9-0.3c1.1-0.3,2-0.7,2.6-1.5l0.1-0.2l0.2,0.1c0.4,0.1,0.7,0.1,1-0.2
	c0.9-0.6,1.4-2.3,1.5-2.8l0-0.3l0.3,0c0.5,0,1-0.1,1.4-0.5c0.5-0.5,0.7-1.5,0.6-3l0-0.4l0.4,0.1c0.3,0.1,0.6,0,0.9-0.3
	c1-0.9,1.1-4,1.1-5.1c0-0.2,0.1-0.3,0.3-0.3c0.2,0,0.3,0.1,0.3,0.3c0,0.2,0.2,4.3-1.3,5.6c-0.3,0.3-0.6,0.4-1,0.4
	c0,1.5-0.2,2.5-0.8,3.1c-0.5,0.5-1.1,0.7-1.6,0.7c-0.1,0.8-0.7,2.4-1.7,3.1c-0.4,0.3-0.9,0.4-1.4,0.3c-0.2,0.2-0.5,0.5-0.7,0.7
	c0.7,0.2,2.6,0.9,5.4,1.2l1.7,4.7l1.9-4.4c1.1,0,2.3,0,3.6-0.1l3.3,3.3l0.3-3.9c1.9-0.4,3.8-1.1,5.7-2c2.8,0.9,5.1-3,5.1-3
	c2.9,0.9,4.2-4.1,4.2-4.1c2.5,0.5,2.5-4.8,2.5-4.8C57.5,39.9,56.3,31.7,56.3,31.7z M41.4,24.4c0,0.1-0.2,0.2-0.3,0.2
	c-0.1,0-0.3-0.1-0.3-0.2c0,0-2.1-4-6.6-4c-4.4,0-7.4,2.8-7.4,7c0,3.9,4.2,9.6,11.8,9.6c15.9,0,16.7-8.1,16.7-9.7
	c0-2.6-2.3-7.5-6.6-7.5C42.9,19.8,41.5,24.2,41.4,24.4z M34,31c-2.4,0-4.3-1.9-4.3-4.3c0-2.4,1.9-4.3,4.3-4.3c2.4,0,4.3,1.9,4.3,4.3
	C38.3,29.1,36.4,31,34,31z M42,34.9L40.2,30l1.2-1.7l1.4,1.4L42,34.9z M52.8,26.2c0,2.4-1.9,4.3-4.3,4.3c-2.4,0-4.3-1.9-4.3-4.3
	c0-2.4,1.9-4.3,4.3-4.3C50.8,21.9,52.8,23.8,52.8,26.2z"/>
</svg>
