<?xml version="1.0" encoding="utf-8"?>
<!-- Generator: Adobe Illustrator 19.0.0, SVG Export Plug-In . SVG Version: 6.00 Build 0)  -->
<!DOCTYPE svg PUBLIC "-//W3C//DTD SVG 1.0//EN" "http://www.w3.org/TR/2001/REC-SVG-20010904/DTD/svg10.dtd">
<svg version="1.0" id="Layer_1" xmlns="http://www.w3.org/2000/svg" xmlns:xlink="http://www.w3.org/1999/xlink" x="0px" y="0px"
	 viewBox="0 0 288 144" enable-background="new 0 0 288 144" xml:space="preserve">
<g id="XMLID_2_">
	<g id="XMLID_53_">
		<path id="XMLID_56_" fill="#4C4C4C" d="M93.2,86.1V55.2H81.9V44.1h35.2v11.1h-11.2v30.9H93.2z"/>
		<path id="XMLID_54_" fill="#4C4C4C" d="M187.9,86.9c-4.5,0-8.3-0.6-11.4-1.8c-3.1-1.2-5.8-2.8-8.1-4.8l6.6-9.4
			c1.6,1.5,3.5,2.8,5.8,3.8c2.3,1,4.9,1.6,7.7,1.6c1.2,0,2.3-0.2,3.2-0.5c0.9-0.3,1.4-0.9,1.4-1.8c0-0.7-0.6-1.2-1.7-1.5
			c-1.2-0.3-2.6-0.6-4.3-0.9c-1.7-0.3-3.6-0.7-5.6-1.2s-3.9-1.2-5.6-2.2c-1.7-1-3.2-2.3-4.3-4c-1.2-1.7-1.7-3.9-1.7-6.7
			c0-1.8,0.4-3.5,1.1-5.2c0.7-1.7,1.8-3.2,3.3-4.5c1.5-1.3,3.3-2.3,5.4-3.1c2.2-0.8,4.7-1.2,7.6-1.2c3.4,0,6.7,0.5,9.7,1.4
			c3,1,5.7,2.4,8.1,4.4l-6.8,9c-1.8-1.4-3.9-2.4-6-3.1c-2.2-0.7-4.3-1-6.3-1c-1.3,0-2.1,0.2-2.6,0.5c-0.4,0.4-0.7,0.8-0.7,1.4
			c0,0.7,0.6,1.2,1.7,1.5c1.2,0.3,2.6,0.7,4.3,1c1.7,0.3,3.6,0.7,5.7,1.2c2,0.5,3.9,1.2,5.6,2.2c1.7,1,3.2,2.3,4.3,3.9
			c1.2,1.6,1.7,3.8,1.7,6.4c0,2.3-0.4,4.4-1.3,6.2c-0.8,1.8-2,3.3-3.6,4.6c-1.6,1.3-3.5,2.2-5.7,2.9
			C193.3,86.6,190.7,86.9,187.9,86.9z"/>
	</g>
	<g id="XMLID_45_">
		<path id="XMLID_52_" fill="#61C250" d="M165,50.2c0-2.2-0.1-4.4-0.3-6.5c-8.5,1.4-15.9,4.8-22.2,9.4
			C145.8,53.6,159.4,55.1,165,50.2z"/>
		<path id="XMLID_51_" fill="#61C250" d="M148.7,65.4c-8.7,0-16.1-2.1-16.2-2.2c-0.1,0-0.2-0.1-0.2-0.2c-1.7,2-3.1,4.2-4.4,6.3
			c0,0.1-0.1,0.2-0.1,0.2c-0.6,1-1.1,1.9-1.6,2.9c3.2,0.9,23.4,6.2,35.3-0.2c1.2-3.1,2.1-6.5,2.7-10
			C159.3,64.6,153.8,65.4,148.7,65.4z"/>
		<path id="XMLID_50_" fill="#61C250" d="M127.8,67.9c2.7-4.2,6-8.1,10-11.7c0-5.7,1.1-9.8,2.4-12.8c-3.9,0.9-7.3,2.2-10.1,4
			C128.6,50.3,127.1,56.1,127.8,67.9z"/>
		<path id="XMLID_49_" fill="#61C250" d="M132.7,62.5c0.7,0.2,19.2,5.3,31.5-1.1c0.5-3.4,0.8-6.9,0.8-10.3
			c-3.5,2.6-9.2,3.3-14.1,3.3c-4.7,0-8.7-0.6-9.1-0.7C138.3,56.4,135.3,59.4,132.7,62.5z"/>
		<path id="XMLID_48_" fill="#61C250" d="M146.2,76.1c-2.3,0-4.5-0.1-6.6-0.4c-6.8-0.7-12.5-2.3-13.9-2.6c-2.1,4.2-3.4,8.4-3.8,12.2
			l-0.1,1.3c0,0.5-0.1,1.1-0.1,1.6c0,0.1-0.1,0.2-0.1,0.3l-0.1,1.2l4.6-3.9c3.9,0.5,9.5,1.2,13.3,1.4c0.7,0.1,8.3,1,9-1.2
			c0.4-0.1,0.8-0.3,1.1-0.5c1.6-0.2,4.4-0.7,4.3-2.6c0.2-0.1,0.3-0.3,0.5-0.4c1.3-0.4,4.8-1.9,3.9-4.5c0,0,0-0.1,0.1-0.1
			c0.5-0.3,3.8-2.5,3.3-5.2C157.2,75.3,151.5,76.1,146.2,76.1z"/>
		<path id="XMLID_47_" fill="#61C250" d="M141.3,42.9c-1.4,2.8-2.7,6.9-2.8,12.7c6.8-5.9,15.3-10.5,24.6-12.3c0,0,0,0,0,0l0,0
			c0.1,0,0.3-0.1,0.4-0.1c-0.9-0.5-6.6-3.2-9.1-1c0,0-4.4-2.7-7.1,0.1C147.3,42.4,143.3,41.2,141.3,42.9z"/>
		<path id="XMLID_46_" fill="#61C250" d="M127.1,69c-0.7-11.1,0.4-17.3,1.8-20.7c-6,4.2-9.3,10.4-9.3,17.7c0,4.7,1.3,13.5,1.8,17.3
			C122.3,78.6,124.3,73.7,127.1,69z"/>
	</g>
	<g id="XMLID_3_">
		<path id="XMLID_43_" fill="#4C4C4C" d="M88.6,102.8v-5h-1.8v-1.2h4.9v1.2h-1.8v5H88.6z"/>
		<path id="XMLID_41_" fill="#4C4C4C" d="M92.8,102.8v-6.1h4.3v1.2h-3v1.3h3v1.2h-3v1.4h3v1.2H92.8z"/>
		<path id="XMLID_38_" fill="#4C4C4C" d="M102.7,102.8l-0.4-1h-2.6l-0.4,1h-1.5l2.4-6.1h1.6l2.4,6.1H102.7z M101,97.9l-1,2.6h1.9
			L101,97.9z"/>
		<path id="XMLID_36_" fill="#4C4C4C" d="M107.6,102.9c-0.5,0-0.9-0.1-1.3-0.2c-0.4-0.2-0.7-0.4-1-0.6c-0.3-0.3-0.5-0.6-0.7-1
			c-0.2-0.4-0.3-0.8-0.3-1.3c0-0.5,0.1-0.9,0.3-1.3c0.2-0.4,0.4-0.7,0.7-1c0.3-0.3,0.6-0.5,1-0.6c0.4-0.2,0.8-0.2,1.3-0.2
			c0.3,0,0.6,0,0.9,0.1c0.3,0.1,0.5,0.2,0.7,0.3c0.2,0.1,0.4,0.3,0.5,0.5c0.2,0.2,0.3,0.4,0.4,0.6l-1.1,0.6
			c-0.1-0.3-0.3-0.5-0.6-0.6c-0.3-0.2-0.5-0.3-0.9-0.3c-0.3,0-0.5,0.1-0.8,0.2c-0.2,0.1-0.4,0.2-0.6,0.4c-0.2,0.2-0.3,0.4-0.4,0.6
			c-0.1,0.2-0.1,0.5-0.1,0.8c0,0.3,0,0.6,0.1,0.8c0.1,0.2,0.2,0.5,0.4,0.6c0.2,0.2,0.4,0.3,0.6,0.4c0.2,0.1,0.5,0.2,0.8,0.2
			c0.3,0,0.6-0.1,0.9-0.3c0.3-0.2,0.4-0.4,0.6-0.6l1.1,0.5c-0.1,0.2-0.2,0.4-0.4,0.6c-0.2,0.2-0.3,0.3-0.5,0.5
			c-0.2,0.1-0.4,0.3-0.7,0.3C108.3,102.8,108,102.9,107.6,102.9z"/>
		<path id="XMLID_34_" fill="#4C4C4C" d="M115.4,102.8v-2.6h-2.9v2.6h-1.3v-6.1h1.3v2.4h2.9v-2.4h1.3v6.1H115.4z"/>
		<path id="XMLID_32_" fill="#4C4C4C" d="M118.2,102.8v-6.1h1.3v6.1H118.2z"/>
		<path id="XMLID_30_" fill="#4C4C4C" d="M125.2,102.8l-2.9-4v4H121v-6.1h1.3l2.8,3.8v-3.8h1.3v6.1H125.2z"/>
		<path id="XMLID_28_" fill="#4C4C4C" d="M130.9,102.9c-0.5,0-0.9-0.1-1.3-0.2c-0.4-0.1-0.7-0.4-1-0.6c-0.3-0.3-0.5-0.6-0.7-1
			c-0.2-0.4-0.3-0.8-0.3-1.3c0-0.5,0.1-0.9,0.3-1.3c0.2-0.4,0.4-0.7,0.7-1c0.3-0.3,0.6-0.5,1-0.6c0.4-0.1,0.8-0.2,1.3-0.2
			c0.3,0,0.6,0,0.9,0.1c0.3,0.1,0.5,0.2,0.7,0.3c0.2,0.1,0.4,0.3,0.5,0.4c0.2,0.2,0.3,0.3,0.4,0.5l-1.1,0.6
			c-0.1-0.2-0.3-0.4-0.6-0.6c-0.3-0.2-0.5-0.2-0.9-0.2c-0.3,0-0.5,0.1-0.8,0.2c-0.2,0.1-0.4,0.2-0.6,0.4c-0.2,0.2-0.3,0.4-0.4,0.6
			c-0.1,0.2-0.1,0.5-0.1,0.8c0,0.3,0,0.6,0.1,0.8c0.1,0.2,0.2,0.5,0.4,0.6c0.2,0.2,0.4,0.3,0.6,0.4c0.2,0.1,0.5,0.2,0.8,0.2
			c0.3,0,0.5,0,0.8-0.1c0.2-0.1,0.4-0.2,0.5-0.3v-0.7h-1.6v-1.1h2.9v2.3c-0.3,0.3-0.7,0.6-1.1,0.8
			C132,102.8,131.5,102.9,130.9,102.9z"/>
		<path id="XMLID_25_" fill="#4C4C4C" d="M140.4,102.9c-0.5,0-0.9-0.1-1.3-0.2s-0.7-0.4-1-0.7c-0.3-0.3-0.5-0.6-0.7-1
			c-0.2-0.4-0.2-0.8-0.2-1.3c0-0.5,0.1-0.9,0.2-1.3c0.2-0.4,0.4-0.7,0.7-1c0.3-0.3,0.6-0.5,1-0.7c0.4-0.2,0.8-0.2,1.3-0.2
			c0.5,0,0.9,0.1,1.3,0.2c0.4,0.2,0.7,0.4,1,0.7c0.3,0.3,0.5,0.6,0.7,1c0.2,0.4,0.2,0.8,0.2,1.3c0,0.5-0.1,0.9-0.2,1.3
			c-0.2,0.4-0.4,0.7-0.7,1c-0.3,0.3-0.6,0.5-1,0.7C141.3,102.8,140.8,102.9,140.4,102.9z M140.4,101.7c0.3,0,0.5-0.1,0.8-0.2
			c0.2-0.1,0.4-0.2,0.6-0.4c0.2-0.2,0.3-0.4,0.4-0.6c0.1-0.2,0.1-0.5,0.1-0.8c0-0.3,0-0.6-0.1-0.8c-0.1-0.2-0.2-0.5-0.4-0.6
			c-0.2-0.2-0.4-0.3-0.6-0.4c-0.2-0.1-0.5-0.2-0.8-0.2c-0.3,0-0.5,0.1-0.8,0.2c-0.2,0.1-0.4,0.2-0.6,0.4c-0.2,0.2-0.3,0.4-0.4,0.6
			c-0.1,0.2-0.1,0.5-0.1,0.8c0,0.3,0,0.6,0.1,0.8c0.1,0.2,0.2,0.5,0.4,0.6c0.2,0.2,0.4,0.3,0.6,0.4
			C139.8,101.7,140.1,101.7,140.4,101.7z"/>
		<path id="XMLID_22_" fill="#4C4C4C" d="M144.7,102.8v-6.1h2.9c0.3,0,0.6,0.1,0.9,0.2c0.3,0.1,0.5,0.2,0.6,0.4
			c0.2,0.2,0.3,0.4,0.4,0.6c0.1,0.2,0.1,0.5,0.1,0.8c0,0.3,0,0.5-0.1,0.8c-0.1,0.2-0.2,0.4-0.4,0.6c-0.2,0.2-0.4,0.3-0.6,0.4
			c-0.3,0.1-0.5,0.2-0.9,0.2h-1.6v2.2H144.7z M147.4,99.4c0.3,0,0.5-0.1,0.6-0.2c0.2-0.1,0.3-0.3,0.3-0.6c0-0.3-0.1-0.5-0.3-0.6
			c-0.2-0.1-0.4-0.2-0.6-0.2h-1.4v1.6H147.4z"/>
		<path id="XMLID_20_" fill="#4C4C4C" d="M150.8,102.8v-6.1h4.3v1.2h-3v1.3h3v1.2h-3v1.4h3v1.2H150.8z"/>
		<path id="XMLID_18_" fill="#4C4C4C" d="M160.6,102.8l-2.9-4v4h-1.3v-6.1h1.3l2.8,3.8v-3.8h1.3v6.1H160.6z"/>
		<path id="XMLID_16_" fill="#4C4C4C" d="M168.1,102.9c-0.6,0-1.1-0.1-1.5-0.3c-0.4-0.2-0.8-0.4-1.1-0.7l0.7-1
			c0.2,0.2,0.5,0.4,0.8,0.6c0.3,0.2,0.7,0.2,1.1,0.2c0.4,0,0.6-0.1,0.8-0.2c0.2-0.1,0.3-0.3,0.3-0.5c0-0.2-0.1-0.3-0.3-0.4
			c-0.2-0.1-0.4-0.2-0.7-0.2c-0.3-0.1-0.5-0.1-0.8-0.2c-0.3-0.1-0.6-0.2-0.8-0.3c-0.3-0.1-0.5-0.3-0.7-0.5c-0.2-0.2-0.3-0.5-0.3-0.9
			c0-0.3,0.1-0.5,0.2-0.7c0.1-0.2,0.3-0.4,0.5-0.6c0.2-0.2,0.4-0.3,0.7-0.4c0.3-0.1,0.6-0.1,1-0.1c1,0,1.8,0.3,2.4,0.9l-0.7,1
			c-0.3-0.2-0.5-0.4-0.8-0.5c-0.3-0.1-0.6-0.2-0.9-0.2c-0.3,0-0.5,0.1-0.6,0.2c-0.1,0.1-0.2,0.3-0.2,0.4c0,0.2,0.1,0.3,0.3,0.4
			c0.2,0.1,0.4,0.2,0.7,0.2c0.3,0.1,0.5,0.1,0.8,0.2c0.3,0.1,0.6,0.2,0.8,0.3c0.3,0.1,0.5,0.3,0.7,0.6c0.2,0.2,0.3,0.5,0.3,0.9
			c0,0.3,0,0.5-0.2,0.8s-0.3,0.4-0.5,0.6c-0.2,0.2-0.5,0.3-0.8,0.4C168.9,102.8,168.6,102.9,168.1,102.9z"/>
		<path id="XMLID_13_" fill="#4C4C4C" d="M174.6,102.9c-0.5,0-0.9-0.1-1.3-0.2c-0.4-0.2-0.7-0.4-1-0.7c-0.3-0.3-0.5-0.6-0.7-1
			c-0.2-0.4-0.2-0.8-0.2-1.3c0-0.5,0.1-0.9,0.2-1.3c0.2-0.4,0.4-0.7,0.7-1c0.3-0.3,0.6-0.5,1-0.7c0.4-0.2,0.8-0.2,1.3-0.2
			c0.5,0,0.9,0.1,1.3,0.2c0.4,0.2,0.7,0.4,1,0.7c0.3,0.3,0.5,0.6,0.7,1c0.2,0.4,0.2,0.8,0.2,1.3c0,0.5-0.1,0.9-0.2,1.3
			c-0.2,0.4-0.4,0.7-0.7,1c-0.3,0.3-0.6,0.5-1,0.7S175.1,102.9,174.6,102.9z M174.6,101.7c0.3,0,0.5-0.1,0.8-0.2
			c0.2-0.1,0.4-0.2,0.6-0.4c0.2-0.2,0.3-0.4,0.4-0.6c0.1-0.2,0.1-0.5,0.1-0.8c0-0.3,0-0.6-0.1-0.8c-0.1-0.2-0.2-0.5-0.4-0.6
			c-0.2-0.2-0.4-0.3-0.6-0.4c-0.2-0.1-0.5-0.2-0.8-0.2c-0.3,0-0.5,0.1-0.8,0.2c-0.2,0.1-0.4,0.2-0.6,0.4c-0.2,0.2-0.3,0.4-0.4,0.6
			c-0.1,0.2-0.1,0.5-0.1,0.8c0,0.3,0,0.6,0.1,0.8c0.1,0.2,0.2,0.5,0.4,0.6c0.2,0.2,0.4,0.3,0.6,0.4
			C174.1,101.7,174.4,101.7,174.6,101.7z"/>
		<path id="XMLID_11_" fill="#4C4C4C" d="M181.8,102.9c-0.5,0-0.9-0.1-1.2-0.2c-0.3-0.1-0.6-0.3-0.9-0.5c-0.2-0.2-0.4-0.5-0.5-0.8
			c-0.1-0.3-0.2-0.7-0.2-1v-3.7h1.3v3.6c0,0.4,0.1,0.8,0.4,1c0.2,0.3,0.6,0.4,1.1,0.4s0.8-0.1,1.1-0.4c0.2-0.3,0.4-0.6,0.4-1v-3.6
			h1.3v3.7c0,0.4-0.1,0.7-0.2,1c-0.1,0.3-0.3,0.6-0.5,0.8c-0.2,0.2-0.5,0.4-0.9,0.5S182.3,102.9,181.8,102.9z"/>
		<path id="XMLID_8_" fill="#4C4C4C" d="M189.5,102.8l-1.2-2.2h-1v2.2H186v-6.1h2.9c0.3,0,0.6,0,0.9,0.1c0.3,0.1,0.5,0.2,0.7,0.4
			c0.2,0.2,0.3,0.4,0.4,0.6c0.1,0.2,0.1,0.5,0.1,0.8c0,0.3,0,0.5-0.1,0.7c-0.1,0.2-0.2,0.4-0.3,0.5c-0.1,0.1-0.3,0.3-0.4,0.4
			c-0.2,0.1-0.3,0.2-0.5,0.2l1.4,2.3H189.5z M188.7,99.4c0.3,0,0.5-0.1,0.6-0.2c0.2-0.1,0.3-0.3,0.3-0.6c0-0.3-0.1-0.5-0.3-0.6
			c-0.2-0.1-0.4-0.2-0.6-0.2h-1.4v1.6H188.7z"/>
		<path id="XMLID_6_" fill="#4C4C4C" d="M195.2,102.9c-0.5,0-0.9-0.1-1.3-0.2c-0.4-0.2-0.7-0.4-1-0.6c-0.3-0.3-0.5-0.6-0.7-1
			c-0.2-0.4-0.3-0.8-0.3-1.3c0-0.5,0.1-0.9,0.3-1.3c0.2-0.4,0.4-0.7,0.7-1c0.3-0.3,0.6-0.5,1-0.6c0.4-0.2,0.8-0.2,1.3-0.2
			c0.3,0,0.6,0,0.9,0.1c0.3,0.1,0.5,0.2,0.7,0.3c0.2,0.1,0.4,0.3,0.5,0.5c0.2,0.2,0.3,0.4,0.4,0.6l-1.1,0.6
			c-0.1-0.3-0.3-0.5-0.6-0.6c-0.3-0.2-0.5-0.3-0.9-0.3c-0.3,0-0.5,0.1-0.8,0.2c-0.2,0.1-0.4,0.2-0.6,0.4c-0.2,0.2-0.3,0.4-0.4,0.6
			c-0.1,0.2-0.1,0.5-0.1,0.8c0,0.3,0,0.6,0.1,0.8c0.1,0.2,0.2,0.5,0.4,0.6c0.2,0.2,0.4,0.3,0.6,0.4c0.2,0.1,0.5,0.2,0.8,0.2
			c0.3,0,0.6-0.1,0.9-0.3c0.3-0.2,0.4-0.4,0.6-0.6l1.1,0.5c-0.1,0.2-0.2,0.4-0.4,0.6c-0.2,0.2-0.3,0.3-0.5,0.5
			c-0.2,0.1-0.4,0.3-0.7,0.3C195.8,102.8,195.5,102.9,195.2,102.9z"/>
		<path id="XMLID_4_" fill="#4C4C4C" d="M198.8,102.8v-6.1h4.3v1.2h-3v1.3h3v1.2h-3v1.4h3v1.2H198.8z"/>
	</g>
</g>
</svg>
