<?xml version="1.0" encoding="utf-8"?>
<!-- Generator: Adobe Illustrator 19.0.0, SVG Export Plug-In . SVG Version: 6.00 Build 0)  -->
<!DOCTYPE svg PUBLIC "-//W3C//DTD SVG 1.0//EN" "http://www.w3.org/TR/2001/REC-SVG-20010904/DTD/svg10.dtd">
<svg version="1.0" id="Layer_1" xmlns="http://www.w3.org/2000/svg" xmlns:xlink="http://www.w3.org/1999/xlink" x="0px" y="0px"
	 viewBox="0 0 288 144" enable-background="new 0 0 288 144" xml:space="preserve">
<g id="XMLID_72_">
	<g id="XMLID_188_">
		<path id="XMLID_192_" fill="#FFFFFF" d="M43.1,86.7v-42H62c6.8,0,17,2.2,17,15.5c0,13.5-10.8,15.4-16.1,15.4h-7.1v11.1L43.1,86.7
			L43.1,86.7z M62.7,65c1.1,0,4.7,0,4.7-4.9c0-4.1-3.6-4.4-4.7-4.4h-6.9V65H62.7z"/>
		<path id="XMLID_191_" fill="#FFFFFF" d="M150.7,87.5c-4.5,0-8.2-0.6-11.3-1.8c-3.1-1.2-5.8-2.8-8-4.8l6.6-9.4
			c1.6,1.5,3.5,2.8,5.8,3.8c2.3,1,4.8,1.6,7.7,1.6c1.2,0,2.3-0.2,3.2-0.5c0.9-0.3,1.4-0.9,1.4-1.8c0-0.7-0.6-1.2-1.7-1.5
			c-1.1-0.3-2.6-0.6-4.3-0.9c-1.7-0.3-3.6-0.7-5.6-1.2c-2-0.5-3.9-1.2-5.6-2.2c-1.7-1-3.2-2.3-4.3-4c-1.1-1.7-1.7-3.9-1.7-6.7
			c0-1.8,0.4-3.5,1.1-5.2c0.7-1.7,1.8-3.2,3.3-4.5c1.5-1.3,3.3-2.3,5.4-3.1c2.1-0.8,4.7-1.2,7.5-1.2c3.4,0,6.6,0.5,9.6,1.4
			c3,1,5.7,2.4,8.1,4.4l-6.8,9c-1.8-1.4-3.8-2.4-6-3.1c-2.2-0.7-4.3-1-6.3-1c-1.3,0-2.1,0.2-2.5,0.5c-0.4,0.4-0.7,0.8-0.7,1.4
			c0,0.7,0.6,1.2,1.7,1.5c1.2,0.3,2.6,0.7,4.3,1c1.7,0.3,3.6,0.7,5.6,1.2c2,0.5,3.9,1.2,5.6,2.2c1.7,1,3.1,2.3,4.3,3.9
			c1.2,1.6,1.7,3.8,1.7,6.4c0,2.3-0.4,4.4-1.3,6.2c-0.8,1.8-2,3.3-3.6,4.6c-1.5,1.3-3.4,2.2-5.7,2.9C156,87.2,153.5,87.5,150.7,87.5
			z"/>
		<path id="XMLID_190_" fill="#FFFFFF" d="M190.1,87.5c-4.5,0-8.2-0.6-11.3-1.8c-3.1-1.2-5.8-2.8-8-4.8l6.6-9.4
			c1.6,1.5,3.5,2.8,5.8,3.8c2.3,1,4.8,1.6,7.7,1.6c1.2,0,2.3-0.2,3.2-0.5c0.9-0.3,1.4-0.9,1.4-1.8c0-0.7-0.6-1.2-1.7-1.5
			c-1.1-0.3-2.6-0.6-4.3-0.9c-1.7-0.3-3.6-0.7-5.6-1.2c-2-0.5-3.9-1.2-5.6-2.2c-1.7-1-3.2-2.3-4.3-4c-1.1-1.7-1.7-3.9-1.7-6.7
			c0-1.8,0.4-3.5,1.1-5.2c0.7-1.7,1.8-3.2,3.3-4.5c1.5-1.3,3.3-2.3,5.4-3.1c2.1-0.8,4.7-1.2,7.5-1.2c3.4,0,6.6,0.5,9.6,1.4
			c3,1,5.7,2.4,8.1,4.4l-6.8,9c-1.8-1.4-3.8-2.4-6-3.1c-2.2-0.7-4.3-1-6.3-1c-1.2,0-2.1,0.2-2.5,0.5c-0.4,0.4-0.7,0.8-0.7,1.4
			c0,0.7,0.6,1.2,1.7,1.5c1.1,0.3,2.6,0.7,4.3,1c1.7,0.3,3.6,0.7,5.6,1.2c2,0.5,3.9,1.2,5.6,2.2c1.7,1,3.1,2.3,4.3,3.9
			c1.2,1.6,1.7,3.8,1.7,6.4c0,2.3-0.4,4.4-1.3,6.2c-0.8,1.8-2,3.3-3.6,4.6c-1.5,1.3-3.4,2.2-5.7,2.9
			C195.4,87.2,192.9,87.5,190.1,87.5z"/>
		<path id="XMLID_189_" fill="#FFFFFF" d="M213.3,86.7v-42h31.6v11.1h-19V60h17.5V71h-17.5v4.6h19v11.1L213.3,86.7L213.3,86.7z"/>
	</g>
	<g id="XMLID_178_">
		<path id="XMLID_187_" fill="#FF6D42" d="M127.8,61.6L127.8,61.6c-0.3-4.2-1.7-8.3-4.5-11.9c-7.3-9.3-20.7-11-30.1-3.7
			c-12.9,10.1-11,35.9-10.7,39.5c0.9,0,2.1,0,3.3-0.1l2-0.4c1.2-0.3,2.2-0.8,2.8-1.6l0.2-0.2l0.2,0.1c0.4,0.1,0.8,0.1,1.1-0.2
			c1-0.7,1.6-2.5,1.6-3.1l0-0.3l0.3,0c0.6,0,1.1-0.1,1.5-0.5c0.5-0.6,0.7-1.6,0.6-3.2l0-0.4l0.4,0.1c0.4,0.1,0.7,0,0.9-0.3
			c1.1-1,1.2-4.3,1.1-5.5c0-0.2,0.1-0.4,0.3-0.4c0.2,0,0.4,0.1,0.4,0.3c0,0.2,0.2,4.6-1.4,6c-0.3,0.3-0.7,0.4-1.1,0.5
			c0,1.6-0.2,2.7-0.8,3.3c-0.5,0.6-1.2,0.7-1.7,0.8c-0.2,0.9-0.8,2.6-1.9,3.3C92,84,91.5,84.1,91,84c-0.2,0.3-0.5,0.5-0.8,0.7
			c0.7,0.3,2.8,0.9,5.8,1.3l1.8,5.1l2-4.8c1.2,0,2.5,0,3.9-0.2l3.5,3.5l0.3-4.2c2-0.5,4.1-1.2,6.2-2.2c3,1,5.5-3.3,5.5-3.3
			c3.2,1,4.5-4.4,4.5-4.4c2.7,0.5,2.7-5.2,2.7-5.2C129.1,70.6,127.8,61.6,127.8,61.6z"/>
		<path id="XMLID_186_" fill="#FFFFFF" d="M108.7,67.8c-8.2,0-13.1-6.1-13.1-10.7c0-4.5,3.1-8,8.3-8c5.2,0,7.5,4.5,7.5,4.5
			s1.6-5.2,8.2-5.2c5,0,7.5,5.6,7.5,8.5C127.1,59.9,125,67.8,108.7,67.8z"/>
		<polygon id="XMLID_185_" fill="#4C4C4C" points="110.5,59.8 111.8,58 113.4,59.4 112.4,65.1 		"/>
		<path id="XMLID_182_" fill="#4C4C4C" d="M119.3,51.1c-2.6,0-4.7,2.1-4.7,4.7c0,2.6,2.1,4.7,4.7,4.7c2.6,0,4.7-2.1,4.7-4.7
			C124,53.2,121.9,51.1,119.3,51.1z M117.9,56c-0.7,0-1.2-0.6-1.2-1.2c0-0.7,0.6-1.2,1.2-1.2c0.7,0,1.2,0.6,1.2,1.2
			C119.2,55.4,118.6,56,117.9,56z"/>
		<path id="XMLID_179_" fill="#4C4C4C" d="M103.8,51.8c-2.5,0-4.6,2.1-4.6,4.6c0,2.5,2.1,4.6,4.6,4.6c2.5,0,4.6-2.1,4.6-4.6
			C108.4,53.8,106.3,51.8,103.8,51.8z M102.5,56.7c-0.7,0-1.2-0.6-1.2-1.2c0-0.7,0.6-1.2,1.2-1.2c0.7,0,1.2,0.6,1.2,1.2
			C103.8,56.1,103.2,56.7,102.5,56.7z"/>
	</g>
	<g id="XMLID_73_">
		<path id="XMLID_175_" fill="#FFFFFF" d="M43.3,102.4v-5h2.3c0.3,0,0.5,0,0.7,0.1c0.2,0.1,0.4,0.2,0.5,0.3c0.1,0.1,0.3,0.3,0.3,0.5
			c0.1,0.2,0.1,0.4,0.1,0.6s0,0.4-0.1,0.6c-0.1,0.2-0.2,0.4-0.3,0.5c-0.1,0.1-0.3,0.3-0.5,0.3c-0.2,0.1-0.4,0.1-0.7,0.1h-1.3v1.8
			H43.3z M45.5,99.7c0.2,0,0.4-0.1,0.5-0.2c0.1-0.1,0.2-0.3,0.2-0.5c0-0.2-0.1-0.4-0.2-0.5c-0.1-0.1-0.3-0.2-0.5-0.2h-1.1v1.3H45.5z
			"/>
		<path id="XMLID_172_" fill="#FFFFFF" d="M51,102.4l-1-1.8h-0.8v1.8h-1.1v-5h2.3c0.3,0,0.5,0,0.7,0.1c0.2,0.1,0.4,0.2,0.5,0.3
			c0.1,0.1,0.3,0.3,0.3,0.5c0.1,0.2,0.1,0.4,0.1,0.6c0,0.2,0,0.4-0.1,0.6c-0.1,0.2-0.1,0.3-0.3,0.4c-0.1,0.1-0.2,0.2-0.4,0.3
			c-0.1,0.1-0.3,0.1-0.4,0.2l1.1,1.9H51z M50.4,99.7c0.2,0,0.4-0.1,0.5-0.2c0.1-0.1,0.2-0.3,0.2-0.5c0-0.2-0.1-0.4-0.2-0.5
			c-0.1-0.1-0.3-0.2-0.5-0.2h-1.1v1.3H50.4z"/>
		<path id="XMLID_169_" fill="#FFFFFF" d="M55.6,102.5c-0.4,0-0.7-0.1-1.1-0.2c-0.3-0.1-0.6-0.3-0.8-0.5c-0.2-0.2-0.4-0.5-0.5-0.8
			c-0.1-0.3-0.2-0.7-0.2-1s0.1-0.7,0.2-1c0.1-0.3,0.3-0.6,0.5-0.8c0.2-0.2,0.5-0.4,0.8-0.5c0.3-0.1,0.7-0.2,1.1-0.2
			c0.4,0,0.7,0.1,1,0.2c0.3,0.1,0.6,0.3,0.8,0.5c0.2,0.2,0.4,0.5,0.5,0.8c0.1,0.3,0.2,0.7,0.2,1s-0.1,0.7-0.2,1
			c-0.1,0.3-0.3,0.6-0.5,0.8c-0.2,0.2-0.5,0.4-0.8,0.5C56.4,102.5,56,102.5,55.6,102.5z M55.6,101.6c0.2,0,0.4,0,0.6-0.1
			c0.2-0.1,0.3-0.2,0.5-0.3c0.1-0.1,0.2-0.3,0.3-0.5c0.1-0.2,0.1-0.4,0.1-0.7c0-0.2,0-0.5-0.1-0.7c-0.1-0.2-0.2-0.4-0.3-0.5
			c-0.1-0.1-0.3-0.3-0.5-0.3c-0.2-0.1-0.4-0.1-0.6-0.1c-0.2,0-0.4,0-0.6,0.1c-0.2,0.1-0.3,0.2-0.5,0.3c-0.1,0.1-0.2,0.3-0.3,0.5
			c-0.1,0.2-0.1,0.4-0.1,0.7c0,0.2,0,0.5,0.1,0.7c0.1,0.2,0.2,0.4,0.3,0.5c0.1,0.1,0.3,0.3,0.5,0.3
			C55.2,101.5,55.4,101.6,55.6,101.6z"/>
		<path id="XMLID_167_" fill="#FFFFFF" d="M59.2,102.4v-5h3.5v0.9h-2.5v1h2.4v0.9h-2.4v2.1H59.2z"/>
		<path id="XMLID_165_" fill="#FFFFFF" d="M63.7,102.4v-5h3.5v0.9h-2.5v1h2.4v0.9h-2.4v1.1h2.5v0.9H63.7z"/>
		<path id="XMLID_163_" fill="#FFFFFF" d="M70.1,102.5c-0.5,0-0.9-0.1-1.3-0.2c-0.3-0.1-0.6-0.3-0.9-0.6l0.6-0.8
			c0.2,0.2,0.4,0.3,0.7,0.5c0.3,0.1,0.6,0.2,0.9,0.2c0.3,0,0.5-0.1,0.7-0.2c0.1-0.1,0.2-0.2,0.2-0.4c0-0.1-0.1-0.3-0.2-0.3
			c-0.1-0.1-0.3-0.1-0.5-0.2c-0.2-0.1-0.4-0.1-0.7-0.2c-0.3-0.1-0.5-0.1-0.7-0.3c-0.2-0.1-0.4-0.3-0.5-0.4c-0.1-0.2-0.2-0.4-0.2-0.8
			c0-0.2,0-0.4,0.1-0.6c0.1-0.2,0.2-0.3,0.4-0.5c0.2-0.1,0.4-0.3,0.6-0.3c0.2-0.1,0.5-0.1,0.8-0.1c0.8,0,1.4,0.2,2,0.7l-0.6,0.8
			c-0.2-0.2-0.4-0.3-0.7-0.4c-0.3-0.1-0.5-0.1-0.8-0.1c-0.2,0-0.4,0-0.5,0.1s-0.2,0.2-0.2,0.4c0,0.1,0.1,0.2,0.2,0.3
			c0.1,0.1,0.3,0.1,0.5,0.2c0.2,0.1,0.4,0.1,0.7,0.2c0.2,0.1,0.5,0.2,0.7,0.3c0.2,0.1,0.4,0.3,0.5,0.5c0.1,0.2,0.2,0.4,0.2,0.8
			c0,0.2,0,0.4-0.1,0.6c-0.1,0.2-0.2,0.4-0.4,0.5c-0.2,0.1-0.4,0.3-0.6,0.3C70.8,102.5,70.5,102.5,70.1,102.5z"/>
		<path id="XMLID_161_" fill="#FFFFFF" d="M74.9,102.5c-0.5,0-0.9-0.1-1.3-0.2c-0.3-0.1-0.6-0.3-0.9-0.6l0.6-0.8
			c0.2,0.2,0.4,0.3,0.7,0.5c0.3,0.1,0.6,0.2,0.9,0.2c0.3,0,0.5-0.1,0.7-0.2c0.1-0.1,0.2-0.2,0.2-0.4c0-0.1-0.1-0.3-0.2-0.3
			c-0.1-0.1-0.3-0.1-0.5-0.2c-0.2-0.1-0.4-0.1-0.7-0.2c-0.3-0.1-0.5-0.1-0.7-0.3c-0.2-0.1-0.4-0.3-0.5-0.4c-0.1-0.2-0.2-0.4-0.2-0.8
			c0-0.2,0-0.4,0.1-0.6c0.1-0.2,0.2-0.3,0.4-0.5c0.2-0.1,0.4-0.3,0.6-0.3c0.2-0.1,0.5-0.1,0.8-0.1c0.8,0,1.4,0.2,2,0.7l-0.6,0.8
			c-0.2-0.2-0.4-0.3-0.7-0.4c-0.3-0.1-0.5-0.1-0.8-0.1c-0.2,0-0.4,0-0.5,0.1c-0.1,0.1-0.2,0.2-0.2,0.4c0,0.1,0.1,0.2,0.2,0.3
			c0.1,0.1,0.3,0.1,0.5,0.2c0.2,0.1,0.4,0.1,0.7,0.2c0.2,0.1,0.5,0.2,0.7,0.3c0.2,0.1,0.4,0.3,0.5,0.5c0.1,0.2,0.2,0.4,0.2,0.8
			c0,0.2,0,0.4-0.1,0.6c-0.1,0.2-0.2,0.4-0.4,0.5c-0.2,0.1-0.4,0.3-0.6,0.3C75.5,102.5,75.2,102.5,74.9,102.5z"/>
		<path id="XMLID_158_" fill="#FFFFFF" d="M80.2,102.5c-0.4,0-0.7-0.1-1.1-0.2c-0.3-0.1-0.6-0.3-0.8-0.5c-0.2-0.2-0.4-0.5-0.5-0.8
			c-0.1-0.3-0.2-0.7-0.2-1s0.1-0.7,0.2-1c0.1-0.3,0.3-0.6,0.5-0.8c0.2-0.2,0.5-0.4,0.8-0.5c0.3-0.1,0.7-0.2,1.1-0.2
			c0.4,0,0.7,0.1,1,0.2c0.3,0.1,0.6,0.3,0.8,0.5c0.2,0.2,0.4,0.5,0.5,0.8c0.1,0.3,0.2,0.7,0.2,1s-0.1,0.7-0.2,1
			c-0.1,0.3-0.3,0.6-0.5,0.8c-0.2,0.2-0.5,0.4-0.8,0.5C80.9,102.5,80.6,102.5,80.2,102.5z M80.2,101.6c0.2,0,0.4,0,0.6-0.1
			c0.2-0.1,0.3-0.2,0.5-0.3c0.1-0.1,0.2-0.3,0.3-0.5c0.1-0.2,0.1-0.4,0.1-0.7c0-0.2,0-0.5-0.1-0.7c-0.1-0.2-0.2-0.4-0.3-0.5
			c-0.1-0.1-0.3-0.3-0.5-0.3c-0.2-0.1-0.4-0.1-0.6-0.1c-0.2,0-0.4,0-0.6,0.1c-0.2,0.1-0.3,0.2-0.5,0.3c-0.1,0.1-0.2,0.3-0.3,0.5
			c-0.1,0.2-0.1,0.4-0.1,0.7c0,0.2,0,0.5,0.1,0.7c0.1,0.2,0.2,0.4,0.3,0.5c0.1,0.1,0.3,0.3,0.5,0.3C79.7,101.5,80,101.6,80.2,101.6z
			"/>
		<path id="XMLID_155_" fill="#FFFFFF" d="M86.6,102.4l-1-1.8h-0.8v1.8h-1.1v-5h2.3c0.3,0,0.5,0,0.7,0.1c0.2,0.1,0.4,0.2,0.5,0.3
			c0.1,0.1,0.3,0.3,0.3,0.5c0.1,0.2,0.1,0.4,0.1,0.6c0,0.2,0,0.4-0.1,0.6c-0.1,0.2-0.1,0.3-0.3,0.4c-0.1,0.1-0.2,0.2-0.4,0.3
			c-0.1,0.1-0.3,0.1-0.4,0.2l1.1,1.9H86.6z M86,99.7c0.2,0,0.4-0.1,0.5-0.2c0.1-0.1,0.2-0.3,0.2-0.5c0-0.2-0.1-0.4-0.2-0.5
			c-0.1-0.1-0.3-0.2-0.5-0.2h-1.1v1.3H86z"/>
		<path id="XMLID_153_" fill="#FFFFFF" d="M90.6,102.5c-0.5,0-0.9-0.1-1.3-0.2c-0.3-0.1-0.6-0.3-0.9-0.6l0.6-0.8
			c0.2,0.2,0.4,0.3,0.7,0.5c0.3,0.1,0.6,0.2,0.9,0.2c0.3,0,0.5-0.1,0.7-0.2c0.1-0.1,0.2-0.2,0.2-0.4c0-0.1-0.1-0.3-0.2-0.3
			c-0.1-0.1-0.3-0.1-0.5-0.2c-0.2-0.1-0.4-0.1-0.7-0.2c-0.3-0.1-0.5-0.1-0.7-0.3c-0.2-0.1-0.4-0.3-0.5-0.4c-0.1-0.2-0.2-0.4-0.2-0.8
			c0-0.2,0-0.4,0.1-0.6c0.1-0.2,0.2-0.3,0.4-0.5c0.2-0.1,0.4-0.3,0.6-0.3c0.2-0.1,0.5-0.1,0.8-0.1c0.8,0,1.4,0.2,2,0.7l-0.6,0.8
			c-0.2-0.2-0.4-0.3-0.7-0.4c-0.3-0.1-0.5-0.1-0.8-0.1c-0.2,0-0.4,0-0.5,0.1c-0.1,0.1-0.2,0.2-0.2,0.4c0,0.1,0.1,0.2,0.2,0.3
			c0.1,0.1,0.3,0.1,0.5,0.2c0.2,0.1,0.4,0.1,0.7,0.2c0.2,0.1,0.5,0.2,0.7,0.3c0.2,0.1,0.4,0.3,0.5,0.5c0.1,0.2,0.2,0.4,0.2,0.8
			c0,0.2,0,0.4-0.1,0.6c-0.1,0.2-0.2,0.4-0.4,0.5c-0.2,0.1-0.4,0.3-0.6,0.3C91.3,102.5,91,102.5,90.6,102.5z"/>
		<path id="XMLID_151_" fill="#FFFFFF" d="M94.7,98.1c0,0.3-0.1,0.5-0.2,0.8c-0.1,0.2-0.3,0.4-0.6,0.6l-0.4-0.3
			c0.1,0,0.1-0.1,0.2-0.1c0.1-0.1,0.1-0.1,0.2-0.2s0.1-0.1,0.1-0.2c0-0.1,0.1-0.1,0.1-0.2c0,0-0.1,0-0.1,0c-0.1,0-0.3-0.1-0.4-0.2
			c-0.1-0.1-0.1-0.2-0.1-0.4c0-0.2,0.1-0.3,0.2-0.4c0.1-0.1,0.3-0.2,0.4-0.2c0.2,0,0.3,0.1,0.5,0.2C94.6,97.7,94.7,97.9,94.7,98.1z"
			/>
		<path id="XMLID_148_" fill="#FFFFFF" d="M100.3,102.5c-0.4,0-0.7-0.1-1.1-0.2c-0.3-0.1-0.6-0.3-0.8-0.5c-0.2-0.2-0.4-0.5-0.5-0.8
			c-0.1-0.3-0.2-0.7-0.2-1s0.1-0.7,0.2-1c0.1-0.3,0.3-0.6,0.5-0.8c0.2-0.2,0.5-0.4,0.8-0.5c0.3-0.1,0.7-0.2,1.1-0.2
			c0.4,0,0.7,0.1,1,0.2c0.3,0.1,0.6,0.3,0.8,0.5c0.2,0.2,0.4,0.5,0.5,0.8c0.1,0.3,0.2,0.7,0.2,1s-0.1,0.7-0.2,1
			c-0.1,0.3-0.3,0.6-0.5,0.8c-0.2,0.2-0.5,0.4-0.8,0.5C101,102.5,100.6,102.5,100.3,102.5z M100.3,101.6c0.2,0,0.4,0,0.6-0.1
			c0.2-0.1,0.3-0.2,0.5-0.3c0.1-0.1,0.2-0.3,0.3-0.5c0.1-0.2,0.1-0.4,0.1-0.7c0-0.2,0-0.5-0.1-0.7c-0.1-0.2-0.2-0.4-0.3-0.5
			c-0.1-0.1-0.3-0.3-0.5-0.3c-0.2-0.1-0.4-0.1-0.6-0.1c-0.2,0-0.4,0-0.6,0.1c-0.2,0.1-0.3,0.2-0.5,0.3c-0.1,0.1-0.2,0.3-0.3,0.5
			c-0.1,0.2-0.1,0.4-0.1,0.7c0,0.2,0,0.5,0.1,0.7c0.1,0.2,0.2,0.4,0.3,0.5c0.1,0.1,0.3,0.3,0.5,0.3
			C99.8,101.5,100,101.6,100.3,101.6z"/>
		<path id="XMLID_145_" fill="#FFFFFF" d="M103.8,102.4v-5h2.3c0.3,0,0.5,0,0.7,0.1c0.2,0.1,0.4,0.2,0.5,0.3
			c0.1,0.1,0.3,0.3,0.3,0.5c0.1,0.2,0.1,0.4,0.1,0.6s0,0.4-0.1,0.6c-0.1,0.2-0.2,0.4-0.3,0.5c-0.1,0.1-0.3,0.3-0.5,0.3
			c-0.2,0.1-0.4,0.1-0.7,0.1h-1.3v1.8H103.8z M106,99.7c0.2,0,0.4-0.1,0.5-0.2c0.1-0.1,0.2-0.3,0.2-0.5c0-0.2-0.1-0.4-0.2-0.5
			c-0.1-0.1-0.3-0.2-0.5-0.2h-1.1v1.3H106z"/>
		<path id="XMLID_143_" fill="#FFFFFF" d="M108.8,102.4v-5h3.5v0.9h-2.5v1h2.4v0.9h-2.4v1.1h2.5v0.9H108.8z"/>
		<path id="XMLID_141_" fill="#FFFFFF" d="M116.8,102.4l-2.4-3.3v3.3h-1.1v-5h1.1l2.3,3.1v-3.1h1.1v5H116.8z"/>
		<path id="XMLID_139_" fill="#FFFFFF" d="M123,102.5c-0.5,0-0.9-0.1-1.3-0.2c-0.3-0.1-0.6-0.3-0.9-0.6l0.6-0.8
			c0.2,0.2,0.4,0.3,0.7,0.5c0.3,0.1,0.6,0.2,0.9,0.2c0.3,0,0.5-0.1,0.7-0.2c0.1-0.1,0.2-0.2,0.2-0.4c0-0.1-0.1-0.3-0.2-0.3
			c-0.1-0.1-0.3-0.1-0.5-0.2c-0.2-0.1-0.4-0.1-0.7-0.2c-0.3-0.1-0.5-0.1-0.7-0.3c-0.2-0.1-0.4-0.3-0.5-0.4c-0.1-0.2-0.2-0.4-0.2-0.8
			c0-0.2,0-0.4,0.1-0.6c0.1-0.2,0.2-0.3,0.4-0.5c0.2-0.1,0.4-0.3,0.6-0.3c0.2-0.1,0.5-0.1,0.8-0.1c0.8,0,1.4,0.2,2,0.7l-0.6,0.8
			c-0.2-0.2-0.4-0.3-0.7-0.4c-0.3-0.1-0.5-0.1-0.8-0.1c-0.2,0-0.4,0-0.5,0.1c-0.1,0.1-0.2,0.2-0.2,0.4c0,0.1,0.1,0.2,0.2,0.3
			c0.1,0.1,0.3,0.1,0.5,0.2c0.2,0.1,0.4,0.1,0.7,0.2c0.2,0.1,0.5,0.2,0.7,0.3c0.2,0.1,0.4,0.3,0.5,0.5c0.1,0.2,0.2,0.4,0.2,0.8
			c0,0.2,0,0.4-0.1,0.6c-0.1,0.2-0.2,0.4-0.4,0.5c-0.2,0.1-0.4,0.3-0.6,0.3C123.6,102.5,123.4,102.5,123,102.5z"/>
		<path id="XMLID_124_" fill="#FFFFFF" d="M128.3,102.5c-0.4,0-0.7-0.1-1.1-0.2c-0.3-0.1-0.6-0.3-0.8-0.5c-0.2-0.2-0.4-0.5-0.5-0.8
			c-0.1-0.3-0.2-0.7-0.2-1s0.1-0.7,0.2-1c0.1-0.3,0.3-0.6,0.5-0.8c0.2-0.2,0.5-0.4,0.8-0.5c0.3-0.1,0.7-0.2,1.1-0.2
			c0.4,0,0.7,0.1,1,0.2c0.3,0.1,0.6,0.3,0.8,0.5c0.2,0.2,0.4,0.5,0.5,0.8c0.1,0.3,0.2,0.7,0.2,1s-0.1,0.7-0.2,1
			c-0.1,0.3-0.3,0.6-0.5,0.8c-0.2,0.2-0.5,0.4-0.8,0.5C129.1,102.5,128.7,102.5,128.3,102.5z M128.3,101.6c0.2,0,0.4,0,0.6-0.1
			c0.2-0.1,0.3-0.2,0.5-0.3c0.1-0.1,0.2-0.3,0.3-0.5c0.1-0.2,0.1-0.4,0.1-0.7c0-0.2,0-0.5-0.1-0.7c-0.1-0.2-0.2-0.4-0.3-0.5
			c-0.1-0.1-0.3-0.3-0.5-0.3c-0.2-0.1-0.4-0.1-0.6-0.1c-0.2,0-0.4,0-0.6,0.1c-0.2,0.1-0.3,0.2-0.5,0.3c-0.1,0.1-0.2,0.3-0.3,0.5
			c-0.1,0.2-0.1,0.4-0.1,0.7c0,0.2,0,0.5,0.1,0.7c0.1,0.2,0.2,0.4,0.3,0.5c0.1,0.1,0.3,0.3,0.5,0.3
			C127.9,101.5,128.1,101.6,128.3,101.6z"/>
		<path id="XMLID_122_" fill="#FFFFFF" d="M134.2,102.5c-0.4,0-0.7-0.1-1-0.2c-0.3-0.1-0.5-0.2-0.7-0.4c-0.2-0.2-0.3-0.4-0.4-0.7
			c-0.1-0.3-0.1-0.5-0.1-0.9v-3h1.1v3c0,0.4,0.1,0.6,0.3,0.9c0.2,0.2,0.5,0.3,0.9,0.3c0.4,0,0.7-0.1,0.9-0.3
			c0.2-0.2,0.3-0.5,0.3-0.9v-3h1.1v3c0,0.3,0,0.6-0.1,0.9c-0.1,0.3-0.2,0.5-0.4,0.7c-0.2,0.2-0.4,0.3-0.7,0.4
			C134.9,102.5,134.6,102.5,134.2,102.5z"/>
		<path id="XMLID_119_" fill="#FFFFFF" d="M140.5,102.4l-1-1.8h-0.8v1.8h-1.1v-5h2.3c0.3,0,0.5,0,0.7,0.1c0.2,0.1,0.4,0.2,0.5,0.3
			c0.1,0.1,0.3,0.3,0.3,0.5c0.1,0.2,0.1,0.4,0.1,0.6c0,0.2,0,0.4-0.1,0.6c-0.1,0.2-0.1,0.3-0.3,0.4c-0.1,0.1-0.2,0.2-0.4,0.3
			c-0.1,0.1-0.3,0.1-0.4,0.2l1.1,1.9H140.5z M139.9,99.7c0.2,0,0.4-0.1,0.5-0.2c0.1-0.1,0.2-0.3,0.2-0.5c0-0.2-0.1-0.4-0.2-0.5
			c-0.1-0.1-0.3-0.2-0.5-0.2h-1.1v1.3H139.9z"/>
		<path id="XMLID_117_" fill="#FFFFFF" d="M145.2,102.5c-0.4,0-0.7-0.1-1.1-0.2c-0.3-0.1-0.6-0.3-0.8-0.5c-0.2-0.2-0.4-0.5-0.6-0.8
			c-0.1-0.3-0.2-0.7-0.2-1.1c0-0.4,0.1-0.7,0.2-1.1c0.1-0.3,0.3-0.6,0.6-0.8c0.2-0.2,0.5-0.4,0.8-0.5c0.3-0.1,0.7-0.2,1.1-0.2
			c0.3,0,0.5,0,0.7,0.1c0.2,0.1,0.4,0.2,0.6,0.3c0.2,0.1,0.3,0.2,0.4,0.4c0.1,0.1,0.2,0.3,0.3,0.5l-0.9,0.5
			c-0.1-0.2-0.3-0.4-0.5-0.5c-0.2-0.1-0.4-0.2-0.7-0.2c-0.2,0-0.4,0-0.6,0.1c-0.2,0.1-0.4,0.2-0.5,0.3c-0.1,0.1-0.2,0.3-0.3,0.5
			c-0.1,0.2-0.1,0.4-0.1,0.7c0,0.2,0,0.5,0.1,0.7c0.1,0.2,0.2,0.4,0.3,0.5c0.1,0.1,0.3,0.3,0.5,0.3c0.2,0.1,0.4,0.1,0.6,0.1
			c0.3,0,0.5-0.1,0.7-0.2c0.2-0.1,0.4-0.3,0.5-0.5l0.9,0.4c-0.1,0.2-0.2,0.3-0.3,0.5c-0.1,0.1-0.3,0.3-0.4,0.4
			c-0.2,0.1-0.4,0.2-0.6,0.3C145.7,102.5,145.4,102.5,145.2,102.5z"/>
		<path id="XMLID_115_" fill="#FFFFFF" d="M148.1,102.4v-5h3.5v0.9h-2.5v1h2.4v0.9h-2.4v1.1h2.5v0.9H148.1z"/>
		<path id="XMLID_113_" fill="#FFFFFF" d="M156.7,102.5c-0.5,0-0.9-0.1-1.3-0.2c-0.3-0.1-0.6-0.3-0.9-0.6l0.6-0.8
			c0.2,0.2,0.4,0.3,0.7,0.5c0.3,0.1,0.6,0.2,0.9,0.2c0.3,0,0.5-0.1,0.7-0.2c0.1-0.1,0.2-0.2,0.2-0.4c0-0.1-0.1-0.3-0.2-0.3
			c-0.1-0.1-0.3-0.1-0.5-0.2c-0.2-0.1-0.4-0.1-0.7-0.2c-0.3-0.1-0.5-0.1-0.7-0.3c-0.2-0.1-0.4-0.3-0.5-0.4c-0.1-0.2-0.2-0.4-0.2-0.8
			c0-0.2,0-0.4,0.1-0.6c0.1-0.2,0.2-0.3,0.4-0.5c0.2-0.1,0.4-0.3,0.6-0.3c0.2-0.1,0.5-0.1,0.8-0.1c0.8,0,1.4,0.2,2,0.7l-0.6,0.8
			c-0.2-0.2-0.4-0.3-0.7-0.4c-0.3-0.1-0.5-0.1-0.8-0.1c-0.2,0-0.4,0-0.5,0.1c-0.1,0.1-0.2,0.2-0.2,0.4c0,0.1,0.1,0.2,0.2,0.3
			c0.1,0.1,0.3,0.1,0.5,0.2c0.2,0.1,0.4,0.1,0.7,0.2c0.2,0.1,0.5,0.2,0.7,0.3c0.2,0.1,0.4,0.3,0.5,0.5c0.1,0.2,0.2,0.4,0.2,0.8
			c0,0.2,0,0.4-0.1,0.6c-0.1,0.2-0.2,0.4-0.4,0.5c-0.2,0.1-0.4,0.3-0.6,0.3C157.3,102.5,157,102.5,156.7,102.5z"/>
		<path id="XMLID_110_" fill="#FFFFFF" d="M162,102.5c-0.4,0-0.7-0.1-1.1-0.2c-0.3-0.1-0.6-0.3-0.8-0.5c-0.2-0.2-0.4-0.5-0.5-0.8
			c-0.1-0.3-0.2-0.7-0.2-1s0.1-0.7,0.2-1c0.1-0.3,0.3-0.6,0.5-0.8c0.2-0.2,0.5-0.4,0.8-0.5c0.3-0.1,0.7-0.2,1.1-0.2
			c0.4,0,0.7,0.1,1,0.2c0.3,0.1,0.6,0.3,0.8,0.5c0.2,0.2,0.4,0.5,0.5,0.8c0.1,0.3,0.2,0.7,0.2,1s-0.1,0.7-0.2,1
			c-0.1,0.3-0.3,0.6-0.5,0.8c-0.2,0.2-0.5,0.4-0.8,0.5C162.7,102.5,162.4,102.5,162,102.5z M162,101.6c0.2,0,0.4,0,0.6-0.1
			c0.2-0.1,0.3-0.2,0.5-0.3c0.1-0.1,0.2-0.3,0.3-0.5c0.1-0.2,0.1-0.4,0.1-0.7c0-0.2,0-0.5-0.1-0.7c-0.1-0.2-0.2-0.4-0.3-0.5
			c-0.1-0.1-0.3-0.3-0.5-0.3c-0.2-0.1-0.4-0.1-0.6-0.1c-0.2,0-0.4,0-0.6,0.1c-0.2,0.1-0.3,0.2-0.5,0.3c-0.1,0.1-0.2,0.3-0.3,0.5
			c-0.1,0.2-0.1,0.4-0.1,0.7c0,0.2,0,0.5,0.1,0.7c0.1,0.2,0.2,0.4,0.3,0.5c0.1,0.1,0.3,0.3,0.5,0.3
			C161.5,101.5,161.8,101.6,162,101.6z"/>
		<path id="XMLID_108_" fill="#FFFFFF" d="M165.6,102.4v-5h3.5v0.9h-2.5v1h2.4v0.9h-2.4v2.1H165.6z"/>
		<path id="XMLID_106_" fill="#FFFFFF" d="M171.3,102.4v-4.1h-1.5v-0.9h4v0.9h-1.5v4.1H171.3z"/>
		<path id="XMLID_104_" fill="#FFFFFF" d="M178.5,102.4l-0.9-3.4l-0.9,3.4h-1.1l-1.4-5h1.2l0.9,3.6l1-3.6h0.8l0.9,3.6l0.9-3.6h1.2
			l-1.4,5H178.5z"/>
		<path id="XMLID_101_" fill="#FFFFFF" d="M184.9,102.4l-0.3-0.8h-2.1l-0.3,0.8H181l1.9-5h1.3l1.9,5H184.9z M183.6,98.5l-0.8,2.2
			h1.6L183.6,98.5z"/>
		<path id="XMLID_98_" fill="#FFFFFF" d="M189.7,102.4l-1-1.8h-0.8v1.8h-1.1v-5h2.3c0.3,0,0.5,0,0.7,0.1c0.2,0.1,0.4,0.2,0.5,0.3
			c0.1,0.1,0.3,0.3,0.3,0.5c0.1,0.2,0.1,0.4,0.1,0.6c0,0.2,0,0.4-0.1,0.6c-0.1,0.2-0.1,0.3-0.3,0.4c-0.1,0.1-0.2,0.2-0.4,0.3
			s-0.3,0.1-0.4,0.2l1.1,1.9H189.7z M189,99.7c0.2,0,0.4-0.1,0.5-0.2c0.1-0.1,0.2-0.3,0.2-0.5c0-0.2-0.1-0.4-0.2-0.5
			c-0.1-0.1-0.3-0.2-0.5-0.2h-1.1v1.3H189z"/>
		<path id="XMLID_96_" fill="#FFFFFF" d="M191.9,102.4v-5h3.5v0.9H193v1h2.4v0.9H193v1.1h2.5v0.9H191.9z"/>
		<path id="XMLID_94_" fill="#FFFFFF" d="M198.7,102.4v-5h3.5v0.9h-2.5v1h2.4v0.9h-2.4v1.1h2.5v0.9H198.7z"/>
		<path id="XMLID_92_" fill="#FFFFFF" d="M206.5,102.4l-1.3-1.8l-1.3,1.8h-1.3l1.8-2.6l-1.7-2.4h1.3l1.1,1.7l1.1-1.7h1.3l-1.7,2.4
			l1.8,2.6H206.5z"/>
		<path id="XMLID_89_" fill="#FFFFFF" d="M208.5,102.4v-5h2.3c0.3,0,0.5,0,0.7,0.1c0.2,0.1,0.4,0.2,0.5,0.3c0.1,0.1,0.3,0.3,0.3,0.5
			c0.1,0.2,0.1,0.4,0.1,0.6s0,0.4-0.1,0.6c-0.1,0.2-0.2,0.4-0.3,0.5c-0.1,0.1-0.3,0.3-0.5,0.3c-0.2,0.1-0.4,0.1-0.7,0.1h-1.3v1.8
			H208.5z M210.7,99.7c0.2,0,0.4-0.1,0.5-0.2c0.1-0.1,0.2-0.3,0.2-0.5c0-0.2-0.1-0.4-0.2-0.5c-0.1-0.1-0.3-0.2-0.5-0.2h-1.1v1.3
			H210.7z"/>
		<path id="XMLID_87_" fill="#FFFFFF" d="M213.4,102.4v-5h3.5v0.9h-2.5v1h2.4v0.9h-2.4v1.1h2.5v0.9H213.4z"/>
		<path id="XMLID_84_" fill="#FFFFFF" d="M220.9,102.4l-1-1.8h-0.8v1.8H218v-5h2.3c0.3,0,0.5,0,0.7,0.1c0.2,0.1,0.4,0.2,0.5,0.3
			c0.1,0.1,0.3,0.3,0.3,0.5c0.1,0.2,0.1,0.4,0.1,0.6c0,0.2,0,0.4-0.1,0.6c-0.1,0.2-0.1,0.3-0.3,0.4c-0.1,0.1-0.2,0.2-0.4,0.3
			c-0.1,0.1-0.3,0.1-0.4,0.2l1.1,1.9H220.9z M220.2,99.7c0.2,0,0.4-0.1,0.5-0.2c0.1-0.1,0.2-0.3,0.2-0.5c0-0.2-0.1-0.4-0.2-0.5
			c-0.1-0.1-0.3-0.2-0.5-0.2h-1.1v1.3H220.2z"/>
		<path id="XMLID_82_" fill="#FFFFFF" d="M223.1,102.4v-5h1.1v5H223.1z"/>
		<path id="XMLID_80_" fill="#FFFFFF" d="M225.4,102.4v-5h3.5v0.9h-2.5v1h2.4v0.9h-2.4v1.1h2.5v0.9H225.4z"/>
		<path id="XMLID_78_" fill="#FFFFFF" d="M233.4,102.4l-2.4-3.3v3.3H230v-5h1.1l2.3,3.1v-3.1h1.1v5H233.4z"/>
		<path id="XMLID_76_" fill="#FFFFFF" d="M238.1,102.5c-0.4,0-0.7-0.1-1.1-0.2c-0.3-0.1-0.6-0.3-0.8-0.5c-0.2-0.2-0.4-0.5-0.6-0.8
			c-0.1-0.3-0.2-0.7-0.2-1.1c0-0.4,0.1-0.7,0.2-1.1c0.1-0.3,0.3-0.6,0.6-0.8c0.2-0.2,0.5-0.4,0.8-0.5c0.3-0.1,0.7-0.2,1.1-0.2
			c0.3,0,0.5,0,0.7,0.1c0.2,0.1,0.4,0.2,0.6,0.3c0.2,0.1,0.3,0.2,0.4,0.4c0.1,0.1,0.2,0.3,0.3,0.5l-0.9,0.5
			c-0.1-0.2-0.3-0.4-0.5-0.5c-0.2-0.1-0.4-0.2-0.7-0.2c-0.2,0-0.4,0-0.6,0.1c-0.2,0.1-0.4,0.2-0.5,0.3c-0.1,0.1-0.2,0.3-0.3,0.5
			c-0.1,0.2-0.1,0.4-0.1,0.7c0,0.2,0,0.5,0.1,0.7c0.1,0.2,0.2,0.4,0.3,0.5c0.1,0.1,0.3,0.3,0.5,0.3c0.2,0.1,0.4,0.1,0.6,0.1
			c0.3,0,0.5-0.1,0.7-0.2c0.2-0.1,0.4-0.3,0.5-0.5l0.9,0.4c-0.1,0.2-0.2,0.3-0.3,0.5c-0.1,0.1-0.3,0.3-0.4,0.4
			c-0.2,0.1-0.4,0.2-0.6,0.3C238.6,102.5,238.4,102.5,238.1,102.5z"/>
		<path id="XMLID_74_" fill="#FFFFFF" d="M241.1,102.4v-5h3.5v0.9h-2.5v1h2.4v0.9h-2.4v1.1h2.5v0.9H241.1z"/>
	</g>
</g>
</svg>
