<?xml version="1.0" encoding="utf-8"?>
<!-- Generator: Adobe Illustrator 19.0.0, SVG Export Plug-In . SVG Version: 6.00 Build 0)  -->
<!DOCTYPE svg PUBLIC "-//W3C//DTD SVG 1.0//EN" "http://www.w3.org/TR/2001/REC-SVG-20010904/DTD/svg10.dtd">
<svg version="1.0" id="Layer_1" xmlns="http://www.w3.org/2000/svg" xmlns:xlink="http://www.w3.org/1999/xlink" x="0px" y="0px"
	 viewBox="0 0 144 144" enable-background="new 0 0 144 144" xml:space="preserve">
<g id="XMLID_281_">
	<g id="XMLID_295_">
		<path id="XMLID_1179_" d="M100.5,52.7L100.5,52.7c-0.1-1.7-0.4-3.5-0.9-5.2c-0.3,4.1-3.8,13-23.3,13c-10.4,0-16.6-7.8-16.6-13.5
			c0-5.8,3.9-10.1,10.5-10.1c6.6,0,9.5,5.7,9.5,5.7S81.8,36,90.1,36c1.7,0,3.2,0.5,4.4,1.3c-9.3-11.6-26.2-13.6-37.9-4.4
			c-16.4,12.8-13.9,45.5-13.5,50c1.2,0,2.7,0,4.2-0.2l2.5-0.4c1.5-0.4,2.8-1,3.5-2l0.2-0.3l0.3,0.1c0.5,0.2,1,0.1,1.4-0.2
			c1.2-0.8,2-3.1,2-3.9l0-0.4l0.4,0c0.7,0,1.4-0.1,1.9-0.7c0.6-0.7,0.9-2.1,0.8-4.1l0-0.5l0.5,0.1c0.5,0.1,0.9,0,1.2-0.3
			c1.4-1.3,1.5-5.4,1.4-6.9c0-0.2,0.2-0.5,0.4-0.5c0.2,0,0.5,0.2,0.5,0.4c0,0.2,0.3,5.8-1.7,7.6c-0.4,0.4-0.9,0.6-1.4,0.6
			c0,2-0.3,3.4-1.1,4.2c-0.7,0.7-1.5,0.9-2.2,1c-0.2,1.1-1,3.2-2.4,4.2c-0.6,0.4-1.2,0.5-1.9,0.4c-0.3,0.3-0.6,0.6-1,0.9
			c0.9,0.3,3.6,1.2,7.4,1.7l2.3,6.4l2.6-6c1.5,0,3.2,0,4.9-0.2l4.5,4.5l0.3-5.3c2.5-0.6,5.2-1.5,7.8-2.7c3.8,1.2,6.9-4.1,6.9-4.1
			c4,1.3,5.7-5.5,5.7-5.5c3.4,0.7,3.5-6.6,3.5-6.6C102.2,64,100.5,52.7,100.5,52.7z"/>
		<polygon id="XMLID_302_" points="78.6,50.4 80.3,48.1 82.3,49.9 81.1,57.1 		"/>
		<path id="XMLID_299_" d="M89.8,39.3c-3.3,0-5.9,2.6-5.9,5.9c0,3.3,2.6,5.9,5.9,5.9c3.3,0,5.9-2.6,5.9-5.9
			C95.7,42,93.1,39.3,89.8,39.3z M88,45.5c-0.9,0-1.6-0.7-1.6-1.6c0-0.9,0.7-1.6,1.6-1.6c0.9,0,1.6,0.7,1.6,1.6
			C89.6,44.8,88.9,45.5,88,45.5z"/>
		<path id="XMLID_296_" d="M70.1,40.2c-3.2,0-5.8,2.6-5.8,5.8c0,3.2,2.6,5.8,5.8,5.8c3.2,0,5.8-2.6,5.8-5.8
			C75.9,42.8,73.3,40.2,70.1,40.2z M68.5,46.4c-0.9,0-1.6-0.7-1.6-1.6c0-0.9,0.7-1.6,1.6-1.6c0.9,0,1.6,0.7,1.6,1.6
			C70.1,45.7,69.4,46.4,68.5,46.4z"/>
	</g>
	<g id="XMLID_282_">
		<path id="XMLID_292_" d="M28.6,116.5V98.2h9.8c1.1,0,2,0.2,2.8,0.5c0.8,0.3,1.5,0.8,2.1,1.4c0.6,0.6,1,1.2,1.3,2
			c0.3,0.8,0.4,1.6,0.4,2.4s-0.1,1.7-0.4,2.4c-0.3,0.8-0.7,1.4-1.3,2c-0.6,0.6-1.2,1-2.1,1.4c-0.8,0.3-1.8,0.5-2.8,0.5h-4.2v5.8
			H28.6z M37.7,105.9c0.5,0,0.9-0.1,1.2-0.4c0.3-0.2,0.5-0.6,0.5-1.1c0-0.5-0.2-0.9-0.5-1.1c-0.3-0.2-0.7-0.4-1.2-0.4h-3.5v2.9H37.7
			z"/>
		<path id="XMLID_289_" d="M55.8,116.9c-1.4,0-2.7-0.2-4-0.7c-1.2-0.5-2.3-1.1-3.2-1.9c-0.9-0.8-1.6-1.8-2.1-3
			c-0.5-1.2-0.8-2.4-0.8-3.9c0-1.4,0.3-2.7,0.8-3.9c0.5-1.2,1.2-2.2,2.1-3c0.9-0.8,2-1.5,3.2-1.9c1.2-0.5,2.5-0.7,4-0.7
			s2.7,0.2,4,0.7c1.2,0.5,2.3,1.1,3.2,1.9c0.9,0.8,1.6,1.8,2.1,3c0.5,1.2,0.8,2.4,0.8,3.9c0,1.4-0.3,2.7-0.8,3.9
			c-0.5,1.2-1.2,2.2-2.1,3c-0.9,0.8-2,1.5-3.2,1.9C58.6,116.6,57.2,116.9,55.8,116.9z M55.8,112c0.7,0,1.3-0.1,1.8-0.4
			c0.5-0.2,1-0.6,1.4-1c0.4-0.4,0.7-0.9,0.9-1.5s0.3-1.2,0.3-1.8c0-0.6-0.1-1.2-0.3-1.8c-0.2-0.6-0.5-1-0.9-1.5
			c-0.4-0.4-0.8-0.7-1.4-1c-0.5-0.2-1.1-0.4-1.8-0.4c-0.7,0-1.3,0.1-1.8,0.4c-0.5,0.2-1,0.6-1.4,1c-0.4,0.4-0.7,0.9-0.9,1.5
			c-0.2,0.6-0.3,1.2-0.3,1.8c0,0.6,0.1,1.2,0.3,1.8c0.2,0.6,0.5,1,0.9,1.5c0.4,0.4,0.8,0.7,1.4,1C54.6,111.8,55.2,112,55.8,112z"/>
		<path id="XMLID_287_" d="M74.9,116.9c-2,0-3.6-0.3-5-0.8c-1.4-0.5-2.5-1.2-3.5-2.1l2.9-4.1c0.7,0.7,1.5,1.2,2.5,1.7
			c1,0.5,2.1,0.7,3.4,0.7c0.5,0,1-0.1,1.4-0.2c0.4-0.1,0.6-0.4,0.6-0.8c0-0.3-0.3-0.5-0.8-0.6c-0.5-0.1-1.1-0.3-1.9-0.4
			c-0.8-0.1-1.6-0.3-2.5-0.5c-0.9-0.2-1.7-0.5-2.5-1c-0.8-0.4-1.4-1-1.9-1.8c-0.5-0.7-0.8-1.7-0.8-2.9c0-0.8,0.2-1.5,0.5-2.3
			c0.3-0.7,0.8-1.4,1.4-1.9c0.6-0.6,1.4-1,2.4-1.4c0.9-0.3,2-0.5,3.3-0.5c1.5,0,2.9,0.2,4.2,0.6c1.3,0.4,2.5,1.1,3.5,1.9l-3,3.9
			c-0.8-0.6-1.7-1.1-2.6-1.4c-1-0.3-1.9-0.5-2.7-0.5c-0.5,0-0.9,0.1-1.1,0.2c-0.2,0.2-0.3,0.4-0.3,0.6c0,0.3,0.3,0.5,0.8,0.7
			c0.5,0.1,1.1,0.3,1.9,0.4c0.8,0.1,1.6,0.3,2.5,0.5c0.9,0.2,1.7,0.5,2.5,1c0.8,0.4,1.4,1,1.9,1.7c0.5,0.7,0.8,1.6,0.8,2.8
			c0,1-0.2,1.9-0.6,2.7c-0.4,0.8-0.9,1.5-1.6,2c-0.7,0.5-1.5,1-2.5,1.2C77.3,116.7,76.2,116.9,74.9,116.9z"/>
		<path id="XMLID_285_" d="M91.8,116.9c-2,0-3.6-0.3-5-0.8c-1.4-0.5-2.5-1.2-3.5-2.1l2.9-4.1c0.7,0.7,1.5,1.2,2.5,1.7
			c1,0.5,2.1,0.7,3.4,0.7c0.5,0,1-0.1,1.4-0.2c0.4-0.1,0.6-0.4,0.6-0.8c0-0.3-0.3-0.5-0.8-0.6c-0.5-0.1-1.1-0.3-1.9-0.4
			c-0.8-0.1-1.6-0.3-2.5-0.5c-0.9-0.2-1.7-0.5-2.5-1c-0.8-0.4-1.4-1-1.9-1.8c-0.5-0.7-0.8-1.7-0.8-2.9c0-0.8,0.2-1.5,0.5-2.3
			c0.3-0.7,0.8-1.4,1.4-1.9c0.6-0.6,1.4-1,2.4-1.4c0.9-0.3,2-0.5,3.3-0.5c1.5,0,2.9,0.2,4.2,0.6c1.3,0.4,2.5,1.1,3.5,1.9l-3,3.9
			c-0.8-0.6-1.7-1.1-2.6-1.4s-1.9-0.5-2.7-0.5c-0.5,0-0.9,0.1-1.1,0.2c-0.2,0.2-0.3,0.4-0.3,0.6c0,0.3,0.3,0.5,0.8,0.7
			c0.5,0.1,1.1,0.3,1.9,0.4c0.8,0.1,1.6,0.3,2.5,0.5c0.9,0.2,1.7,0.5,2.5,1c0.8,0.4,1.4,1,1.9,1.7c0.5,0.7,0.8,1.6,0.8,2.8
			c0,1-0.2,1.9-0.6,2.7c-0.4,0.8-0.9,1.5-1.6,2c-0.7,0.5-1.5,1-2.5,1.2C94.1,116.7,93,116.9,91.8,116.9z"/>
		<path id="XMLID_283_" d="M101.5,116.5V98.2h13.9v4.8H107v1.8h8.2v4.8H107v2h8.3v4.8H101.5z"/>
	</g>
</g>
</svg>
