<?xml version="1.0" encoding="utf-8"?>
<!-- Generator: Adobe Illustrator 19.0.0, SVG Export Plug-In . SVG Version: 6.00 Build 0)  -->
<!DOCTYPE svg PUBLIC "-//W3C//DTD SVG 1.0//EN" "http://www.w3.org/TR/2001/REC-SVG-20010904/DTD/svg10.dtd">
<svg version="1.0" id="Layer_1" xmlns="http://www.w3.org/2000/svg" xmlns:xlink="http://www.w3.org/1999/xlink" x="0px" y="0px"
	 viewBox="0 0 144 144" enable-background="new 0 0 144 144" xml:space="preserve">
<g id="XMLID_234_">
	<g id="XMLID_243_">
		<path id="XMLID_250_" fill="#61C250" d="M103,36.2c0-2.8-0.1-5.6-0.3-8.2C91.9,29.7,82.5,34,74.6,39.9
			C78.7,40.4,95.9,42.3,103,36.2z"/>
		<path id="XMLID_249_" fill="#61C250" d="M82.3,55.3c-11,0-20.4-2.7-20.6-2.7c-0.1,0-0.2-0.1-0.3-0.2c-2.1,2.6-4,5.3-5.6,8
			c0,0.1-0.1,0.2-0.2,0.3c-0.7,1.2-1.4,2.4-2,3.6c4,1.1,29.7,7.8,44.7-0.2c1.6-3.9,2.7-8.2,3.4-12.6C95.8,54.4,88.8,55.3,82.3,55.3z
			"/>
		<path id="XMLID_248_" fill="#61C250" d="M55.8,58.6c3.4-5.3,7.7-10.3,12.7-14.8c0-7.2,1.4-12.5,3.1-16.2
			c-4.9,1.1-9.2,2.8-12.8,5.1C56.9,36.3,55,43.7,55.8,58.6z"/>
		<path id="XMLID_247_" fill="#61C250" d="M62.1,51.8c0.8,0.2,24.3,6.7,39.9-1.4c0.7-4.3,1-8.8,1-13c-4.4,3.3-11.6,4.2-17.9,4.2
			c-6,0-11-0.8-11.6-0.9C69.2,44,65.4,47.8,62.1,51.8z"/>
		<path id="XMLID_246_" fill="#61C250" d="M79.2,68.9c-2.9,0-5.8-0.2-8.3-0.4c-8.7-0.9-15.9-2.9-17.6-3.4
			c-2.6,5.3-4.3,10.6-4.8,15.5l-0.2,1.6c0,0.7-0.1,1.4-0.1,2c0,0.1-0.1,0.3-0.2,0.3l-0.2,1.5l5.9-5c4.9,0.7,12.1,1.6,16.9,1.8
			c0.8,0.1,10.5,1.3,11.4-1.5c0.5-0.2,1-0.4,1.4-0.6c2-0.2,5.6-0.9,5.4-3.2c0.2-0.2,0.4-0.3,0.6-0.5c1.7-0.6,6-2.4,5-5.6
			c0,0,0.1-0.1,0.1-0.1c0.7-0.4,4.8-3.2,4.2-6.5C93.1,68,85.9,68.9,79.2,68.9z"/>
		<path id="XMLID_245_" fill="#61C250" d="M73,26.9c-1.8,3.5-3.4,8.7-3.5,16.1c8.7-7.5,19.3-13.3,31.1-15.6c0,0,0,0,0,0l0,0
			c0.2,0,0.3-0.1,0.5-0.1c-1.2-0.6-8.4-4-11.5-1.2c0,0-5.6-3.4-9,0.2C80.6,26.2,75.5,24.7,73,26.9z"/>
		<path id="XMLID_244_" fill="#61C250" d="M55,59.9c-0.9-14.1,0.5-21.9,2.3-26.3c-7.6,5.4-11.7,13.2-11.7,22.4
			c0,5.9,1.6,17.2,2.3,22C48.9,72.1,51.4,65.9,55,59.9z"/>
	</g>
	<g id="XMLID_235_">
		<path id="XMLID_241_" fill="#4C4C4C" d="M44.2,119v-17.4h-6.4v-6.2h19.8v6.2h-6.3V119H44.2z"/>
		<path id="XMLID_238_" fill="#4C4C4C" d="M71.2,119.4c-1.8,0-3.5-0.3-5.1-0.9c-1.6-0.6-3-1.4-4.1-2.5c-1.2-1.1-2.1-2.4-2.7-3.9
			c-0.7-1.5-1-3.2-1-5c0-1.8,0.3-3.5,1-5c0.7-1.5,1.6-2.8,2.7-3.9c1.2-1.1,2.5-1.9,4.1-2.5c1.6-0.6,3.3-0.9,5.1-0.9
			c1.8,0,3.5,0.3,5.1,0.9s3,1.4,4.1,2.5c1.2,1.1,2.1,2.4,2.7,3.9c0.7,1.5,1,3.2,1,5c0,1.8-0.3,3.5-1,5c-0.7,1.5-1.6,2.8-2.7,3.9
			c-1.2,1.1-2.5,1.9-4.1,2.5S73,119.4,71.2,119.4z M71.2,113.1c0.9,0,1.6-0.2,2.3-0.5c0.7-0.3,1.3-0.7,1.8-1.3s0.9-1.2,1.2-1.9
			c0.3-0.7,0.4-1.5,0.4-2.3c0-0.8-0.1-1.6-0.4-2.3c-0.3-0.7-0.7-1.3-1.2-1.9c-0.5-0.5-1.1-1-1.8-1.3c-0.7-0.3-1.5-0.5-2.3-0.5
			s-1.6,0.2-2.3,0.5c-0.7,0.3-1.3,0.7-1.8,1.3c-0.5,0.5-0.9,1.2-1.2,1.9c-0.3,0.7-0.4,1.5-0.4,2.3c0,0.8,0.1,1.6,0.4,2.3
			c0.3,0.7,0.7,1.3,1.2,1.9s1.1,1,1.8,1.3C69.6,112.9,70.3,113.1,71.2,113.1z"/>
		<path id="XMLID_236_" fill="#4C4C4C" d="M95.9,119.4c-2.5,0-4.7-0.3-6.4-1c-1.8-0.7-3.3-1.6-4.6-2.7l3.7-5.3
			c0.9,0.9,2,1.6,3.3,2.2c1.3,0.6,2.7,0.9,4.3,0.9c0.7,0,1.3-0.1,1.8-0.3s0.8-0.5,0.8-1c0-0.4-0.3-0.7-1-0.8
			c-0.6-0.2-1.5-0.3-2.4-0.5c-1-0.2-2-0.4-3.2-0.7s-2.2-0.7-3.2-1.2c-1-0.6-1.8-1.3-2.4-2.3c-0.6-1-1-2.2-1-3.8c0-1,0.2-2,0.6-2.9
			c0.4-0.9,1-1.8,1.9-2.5c0.8-0.7,1.9-1.3,3.1-1.8c1.2-0.4,2.6-0.7,4.3-0.7c1.9,0,3.8,0.3,5.5,0.8c1.7,0.5,3.2,1.4,4.6,2.5l-3.8,5.1
			c-1-0.8-2.2-1.4-3.4-1.8c-1.2-0.4-2.4-0.6-3.5-0.6c-0.7,0-1.2,0.1-1.4,0.3c-0.2,0.2-0.4,0.5-0.4,0.8c0,0.4,0.3,0.7,1,0.9
			c0.7,0.2,1.5,0.4,2.4,0.6c1,0.2,2,0.4,3.2,0.7c1.1,0.3,2.2,0.7,3.2,1.2c1,0.5,1.8,1.3,2.4,2.2c0.7,0.9,1,2.1,1,3.6
			c0,1.3-0.2,2.5-0.7,3.5c-0.5,1-1.2,1.9-2,2.6c-0.9,0.7-2,1.2-3.2,1.6C98.9,119.2,97.5,119.4,95.9,119.4z"/>
	</g>
</g>
</svg>
