<?xml version="1.0" encoding="utf-8"?>
<!-- Generator: Adobe Illustrator 19.0.0, SVG Export Plug-In . SVG Version: 6.00 Build 0)  -->
<!DOCTYPE svg PUBLIC "-//W3C//DTD SVG 1.0//EN" "http://www.w3.org/TR/2001/REC-SVG-20010904/DTD/svg10.dtd">
<svg version="1.0" id="Layer_1" xmlns="http://www.w3.org/2000/svg" xmlns:xlink="http://www.w3.org/1999/xlink" x="0px" y="0px"
	 viewBox="0 0 72 72" enable-background="new 0 0 72 72" xml:space="preserve">
<g id="XMLID_392_">
	<path id="XMLID_399_" fill="#61C250" d="M57,21.9c0-2.1-0.1-4.1-0.2-6c-7.8,1.3-14.8,4.5-20.5,8.7C39.3,25.1,51.8,26.4,57,21.9z"/>
	<path id="XMLID_398_" fill="#61C250" d="M41.9,36c-8,0-14.9-2-15-2c-0.1,0-0.1-0.1-0.2-0.1c-1.5,1.9-2.9,3.9-4.1,5.8
		c0,0.1-0.1,0.1-0.1,0.2c-0.5,0.9-1,1.8-1.5,2.7c2.9,0.8,21.7,5.7,32.7-0.2c1.1-2.9,1.9-6,2.5-9.2C51.7,35.3,46.6,36,41.9,36z"/>
	<path id="XMLID_397_" fill="#61C250" d="M22.5,38.3c2.5-3.9,5.6-7.5,9.3-10.8c0-5.3,1-9.1,2.2-11.8c-3.6,0.8-6.7,2.1-9.3,3.7
		C23.3,22,21.9,27.4,22.5,38.3z"/>
	<path id="XMLID_396_" fill="#61C250" d="M27.1,33.3c0.6,0.2,17.7,4.9,29.2-1c0.5-3.2,0.7-6.4,0.7-9.5c-3.2,2.4-8.5,3.1-13.1,3.1
		c-4.4,0-8-0.6-8.5-0.6C32.3,27.7,29.5,30.4,27.1,33.3z"/>
	<path id="XMLID_395_" fill="#61C250" d="M39.6,45.9c-2.1,0-4.2-0.1-6.1-0.3c-6.3-0.7-11.6-2.1-12.9-2.5c-1.9,3.9-3.1,7.8-3.5,11.3
		L17,55.6c0,0.5-0.1,1-0.1,1.5c0,0.1,0,0.2-0.1,0.3l-0.1,1.1l4.3-3.6c3.6,0.5,8.8,1.1,12.3,1.3c0.6,0.1,7.7,1,8.4-1.1
		c0.4-0.1,0.7-0.3,1-0.4c1.5-0.2,4.1-0.7,4-2.4c0.2-0.1,0.3-0.2,0.5-0.4c1.2-0.4,4.4-1.7,3.6-4.1c0,0,0-0.1,0.1-0.1
		c0.5-0.3,3.5-2.3,3.1-4.8C49.7,45.2,44.5,45.9,39.6,45.9z"/>
	<path id="XMLID_394_" fill="#61C250" d="M35,15.2c-1.3,2.6-2.5,6.4-2.6,11.8c6.3-5.5,14.1-9.7,22.8-11.4c0,0,0,0,0,0l0,0
		c0.1,0,0.2,0,0.4-0.1c-0.9-0.4-6.1-3-8.4-0.9c0,0-4.1-2.5-6.6,0.1C40.6,14.7,36.9,13.5,35,15.2z"/>
	<path id="XMLID_393_" fill="#61C250" d="M21.9,39.3c-0.6-10.3,0.4-16,1.7-19.2C18,24.1,15,29.8,15,36.5c0,4.3,1.2,12.5,1.7,16.1
		C17.5,48.2,19.3,43.7,21.9,39.3z"/>
</g>
</svg>
